<?xml version="1.0" encoding="UTF-8" standalone="no"?>
<!-- Created with Inkscape (http://www.inkscape.org/) -->

<svg
   version="1.1"
   id="svg313"
   width="401.69806"
   height="24.047758"
   viewBox="0 0 401.69806 24.047758"
   sodipodi:docname="liseret2.svg"
   inkscape:version="1.1 (c68e22c387, 2021-05-23)"
   xmlns:inkscape="http://www.inkscape.org/namespaces/inkscape"
   xmlns:sodipodi="http://sodipodi.sourceforge.net/DTD/sodipodi-0.dtd"
   xmlns="http://www.w3.org/2000/svg"
   xmlns:svg="http://www.w3.org/2000/svg">
  <defs
     id="defs317" />
  <sodipodi:namedview
     id="namedview315"
     pagecolor="#ffffff"
     bordercolor="#666666"
     borderopacity="1.0"
     inkscape:pageshadow="2"
     inkscape:pageopacity="0.0"
     inkscape:pagecheckerboard="0"
     showgrid="false"
     inkscape:zoom="1.304"
     inkscape:cx="69.40184"
     inkscape:cy="-13.420245"
     inkscape:window-width="1600"
     inkscape:window-height="837"
     inkscape:window-x="-8"
     inkscape:window-y="-8"
     inkscape:window-maximized="1"
     inkscape:current-layer="g319"
     fit-margin-top="0"
     fit-margin-left="0"
     fit-margin-right="0"
     fit-margin-bottom="0" />
  <g
     inkscape:groupmode="layer"
     inkscape:label="Image"
     id="g319"
     transform="translate(404.02725,-235.78346)">
    <path
       style="fill:#ffffff"
       d="m -398.3958,257.56506 c -10.12847,-6.82558 -5.74666,-21.7185 6.39353,-21.73036 7.61918,-0.007 12.55923,9.43068 8.19641,15.65949 -4.22417,6.03084 -13.96064,1.75944 -10.54355,-4.62546 1.31807,-2.46282 4.69447,-2.64254 7.19148,-0.38278 1.57716,1.42731 1.82874,1.44587 1.82874,0.13486 0,-0.83607 -0.93266,-2.70582 -2.07258,-4.15499 -3.87607,-4.92762 -11.26634,-2.5263 -12.5414,4.07508 -0.51888,2.68641 -0.12418,3.70575 2.42007,6.25 l 3.04006,3.04006 h 191.15385 191.153846 l 2.92307,-2.92308 c 3.29556,-3.29555 3.56222,-4.94028 1.46007,-9.0054 -1.57538,-3.04644 -3.34939,-4.07152 -7.0462,-4.07152 -2.48791,0 -6.49079,4.18731 -6.49079,6.78985 0,1.31101 0.25157,1.29245 1.82874,-0.13486 2.49701,-2.25976 5.87341,-2.08004 7.19148,0.38278 2.21105,4.1314 -1.7565,8.78539 -6.30799,7.39935 -4.14527,-1.26234 -5.71223,-3.50324 -5.71223,-8.16903 0,-8.36315 8.10482,-12.85085 15.91481,-8.81214 2.97818,1.54007 6.08519,6.89859 6.08519,10.49484 0,3.43597 -2.83547,7.97813 -6.29855,10.08969 -3.14577,1.91809 -6.5341,1.95211 -194.803566,1.95578 l -191.60212,0.004 z m 13.4636,-6.56743 c 0.28327,-0.45834 -0.12038,-0.83334 -0.89699,-0.83334 -0.77662,0 -1.18026,0.375 -0.897,0.83334 0.28327,0.45833 0.68692,0.83333 0.897,0.83333 0.21008,0 0.61373,-0.375 0.89699,-0.83333 z m 364.999996,0 c 0.28327,-0.45834 -0.12038,-0.83334 -0.89699,-0.83334 -0.77661,0 -1.18026,0.375 -0.89699,0.83334 0.28326,0.45833 0.68691,0.83333 0.89699,0.83333 0.21008,0 0.61373,-0.375 0.89699,-0.83333 z m 5.60301,-1.66667 c 0,-0.76008 -0.50031,-1.69118 -1.1118,-2.0691 -1.5787,-0.97568 -2.99859,1.73116 -1.71769,3.27455 1.22772,1.47931 2.82949,0.79691 2.82949,-1.20545 z m -374.999996,-0.58333 c 0,-2.43705 -2.33678,-2.09257 -2.82333,0.4162 -0.19137,0.98676 0.31876,1.66713 1.25,1.66713 0.92764,0 1.57333,-0.855 1.57333,-2.08333 z m 5.69299,-3.64764 c -0.25355,-0.97297 -0.47767,-0.41903 -0.49804,1.23097 -0.0204,1.65 0.18706,2.44606 0.46098,1.76903 0.27393,-0.67703 0.2906,-2.02703 0.0371,-3 z m 360.999996,0 c -0.25354,-0.97297 -0.47766,-0.41903 -0.49804,1.23097 -0.0204,1.65 0.18706,2.44606 0.46099,1.76903 0.27392,-0.67703 0.29059,-2.02703 0.0371,-3 z m 17.30701,-2.61404 c 0,-0.18976 -1.0125,-1.20226 -2.25,-2.25 l -2.25,-1.90499 1.90499,2.25 c 1.79022,2.11444 2.59501,2.70524 2.59501,1.90499 z"
       id="path323" />
  </g>
</svg>
